
<svg width="64" height="64" viewBox="0 0 64 64" fill="none" xmlns="http://www.w3.org/2000/svg">
<path d="M31.9997 42.6667C33.4724 42.6667 34.6663 41.4728 34.6663 40C34.6663 38.5273 33.4724 37.3333 31.9997 37.3333C30.5269 37.3333 29.333 38.5273 29.333 40C29.333 41.4728 30.5269 42.6667 31.9997 42.6667Z" stroke="white" stroke-linecap="round" stroke-linejoin="round"/>
<path d="M32 42.6667V50.6667" stroke="white" stroke-linecap="round" stroke-linejoin="round"/>
<path d="M51.9997 25.3333H11.9997C10.5269 25.3333 9.33301 26.5273 9.33301 28V60C9.33301 61.4728 10.5269 62.6667 11.9997 62.6667H51.9997C53.4724 62.6667 54.6663 61.4728 54.6663 60V28C54.6663 26.5273 53.4724 25.3333 51.9997 25.3333Z" stroke="white" stroke-linecap="round" stroke-linejoin="round"/>
<path d="M17.333 16C17.333 12.1102 18.8782 8.37964 21.6288 5.62911C24.3793 2.87858 28.1098 1.33334 31.9997 1.33334C35.8895 1.33334 39.62 2.87858 42.3706 5.62911C45.1211 8.37964 46.6663 12.1102 46.6663 16V25.3333H17.333V16Z" stroke="white" stroke-linecap="round" stroke-linejoin="round"/>
</svg>
