
<svg width="40" height="34" viewBox="0 0 40 34" fill="none" xmlns="http://www.w3.org/2000/svg">
<path opacity="0.2" d="M15.9259 0.618181C13.2099 3.09091 11.1111 5.85212 9.62963 8.90181C8.14815 11.9515 7.40741 14.7539 7.40741 17.3091C8.06584 16.9794 8.97119 16.8145 10.1235 16.8145C12.3457 16.8145 14.1975 17.5976 15.679 19.1636C17.1605 20.7297 17.9012 22.7079 17.9012 25.0982C17.9012 27.7358 17.037 29.8788 15.3086 31.5273C13.6626 33.1758 11.5638 34 9.01235 34C6.21399 34 3.99177 33.1345 2.34568 31.4036C0.781893 29.6727 0 27.4885 0 24.8509C0 19.6582 0.946502 14.96 2.83951 10.7564C4.81482 6.55272 7.40741 3.25575 10.6173 0.865451C11.2757 0.288484 12.2634 0 13.5802 0C14.6502 0 15.4321 0.20606 15.9259 0.618181ZM38.0247 0.618181C35.3086 3.09091 33.2099 5.85212 31.7284 8.90181C30.2469 11.9515 29.5062 14.7539 29.5062 17.3091C30.1646 16.9794 31.07 16.8145 32.2222 16.8145C34.4444 16.8145 36.2963 17.5976 37.7778 19.1636C39.2593 20.7297 40 22.7079 40 25.0982C40 27.7358 39.1358 29.8788 37.4074 31.5273C35.7613 33.1758 33.6626 34 31.1111 34C28.3128 34 26.0905 33.1345 24.4444 31.4036C22.8807 29.6727 22.0988 27.4885 22.0988 24.8509C22.0988 19.6582 23.0453 14.96 24.9383 10.7564C26.9136 6.55272 29.5062 3.25575 32.716 0.865451C33.3745 0.288484 34.3621 0 35.679 0C36.749 0 37.5309 0.20606 38.0247 0.618181Z" fill="#43403C"/>
</svg>
